<svg width="29" height="28" viewBox="0 0 29 28" fill="none" xmlns="http://www.w3.org/2000/svg">
<path fill-rule="evenodd" clip-rule="evenodd" d="M19.3949 1.16663C19.8779 1.16663 20.2699 1.55863 20.2699 2.04163L20.2704 3.03074C21.9739 3.14753 23.3887 3.73101 24.39 4.73441C25.4832 5.83224 26.0583 7.41074 26.0525 9.30424V19.9477C26.0525 23.8351 23.5838 26.2501 19.6113 26.2501H9.74366C5.77116 26.2501 3.30249 23.8012 3.30249 19.8591V9.30191C3.30249 5.6353 5.50406 3.28172 9.09462 3.03114L9.09534 2.04163C9.09534 1.55863 9.48734 1.16663 9.97034 1.16663C10.4533 1.16663 10.8453 1.55863 10.8453 2.04163L10.845 3.00879H18.5193L18.5199 2.04163C18.5199 1.55863 18.9119 1.16663 19.3949 1.16663ZM24.3025 11.5546H5.05249V19.8591C5.05249 22.8527 6.71849 24.5001 9.74366 24.5001H19.6113C22.6365 24.5001 24.3025 22.8831 24.3025 19.9477L24.3025 11.5546ZM19.8706 18.8956C20.3536 18.8956 20.7456 19.2876 20.7456 19.7706C20.7456 20.2536 20.3536 20.6456 19.8706 20.6456C19.3876 20.6456 18.9909 20.2536 18.9909 19.7706C18.9909 19.2876 19.3771 18.8956 19.8601 18.8956H19.8706ZM14.6935 18.8956C15.1765 18.8956 15.5685 19.2876 15.5685 19.7706C15.5685 20.2536 15.1765 20.6456 14.6935 20.6456C14.2105 20.6456 13.8138 20.2536 13.8138 19.7706C13.8138 19.2876 14.2 18.8956 14.683 18.8956H14.6935ZM9.50554 18.8956C9.98854 18.8956 10.3805 19.2876 10.3805 19.7706C10.3805 20.2536 9.98854 20.6456 9.50554 20.6456C9.02254 20.6456 8.62471 20.2536 8.62471 19.7706C8.62471 19.2876 9.01204 18.8956 9.49504 18.8956H9.50554ZM19.8706 14.3612C20.3536 14.3612 20.7456 14.7532 20.7456 15.2362C20.7456 15.7192 20.3536 16.1112 19.8706 16.1112C19.3876 16.1112 18.9909 15.7192 18.9909 15.2362C18.9909 14.7532 19.3771 14.3612 19.8601 14.3612H19.8706ZM14.6935 14.3612C15.1765 14.3612 15.5685 14.7532 15.5685 15.2362C15.5685 15.7192 15.1765 16.1112 14.6935 16.1112C14.2105 16.1112 13.8138 15.7192 13.8138 15.2362C13.8138 14.7532 14.2 14.3612 14.683 14.3612H14.6935ZM9.50554 14.3612C9.98854 14.3612 10.3805 14.7532 10.3805 15.2362C10.3805 15.7192 9.98854 16.1112 9.50554 16.1112C9.02254 16.1112 8.62471 15.7192 8.62471 15.2362C8.62471 14.7532 9.01204 14.3612 9.49504 14.3612H9.50554ZM18.5193 4.75879H10.845L10.8453 5.88113C10.8453 6.36413 10.4533 6.75613 9.97034 6.75613C9.48734 6.75613 9.09534 6.36413 9.09534 5.88113L9.09472 4.78528C6.48112 5.00483 5.05249 6.58912 5.05249 9.30191V9.80463H24.3025L24.3025 9.30191C24.3072 7.86108 23.9198 6.74108 23.151 5.97108C22.4761 5.29419 21.4895 4.88993 20.2709 4.78584L20.2699 5.88113C20.2699 6.36413 19.8779 6.75613 19.3949 6.75613C18.9119 6.75613 18.5199 6.36413 18.5199 5.88113L18.5193 4.75879Z" fill="#A9A9A9"/>
</svg>
