<svg width="29" height="28" viewBox="0 0 29 28" fill="none" xmlns="http://www.w3.org/2000/svg">
<path opacity="0.4" d="M20.598 5.96736H17.1644C16.309 5.97301 15.4969 5.59252 14.9548 4.93213L13.8241 3.36894C13.2912 2.70276 12.4791 2.32048 11.625 2.33371H9.19762C4.8408 2.33371 3.23291 4.89072 3.23291 9.23868V13.9386C3.2275 14.4555 26.5612 14.4548 26.5627 13.9386V12.5721C26.5834 8.22416 25.017 5.96736 20.598 5.96736Z" fill="#A9A9A9"/>
<path d="M20.5876 5.96736C22.1098 5.84963 23.6207 6.3079 24.8199 7.25105C24.958 7.36816 25.0864 7.49626 25.2037 7.63408C25.577 8.07051 25.8654 8.57254 26.0543 9.11446C26.426 10.2283 26.5981 11.3987 26.5626 12.5721V18.7007C26.5612 19.2169 26.523 19.7323 26.4485 20.2432C26.3067 21.1447 25.9895 22.0098 25.5149 22.7898C25.2968 23.1666 25.0319 23.5144 24.7266 23.8251C23.3443 25.0937 21.5087 25.7541 19.6332 25.6574H10.152C8.27349 25.7534 6.43496 25.0933 5.04825 23.8251C4.74655 23.5138 4.48517 23.166 4.27025 22.7898C3.79845 22.0104 3.48805 21.1444 3.35739 20.2432C3.27431 19.7332 3.23291 19.2174 3.23291 18.7007V12.5721C3.23291 12.0603 3.26041 11.5488 3.3159 11.04C3.34702 10.8019 3.41963 10.5741 3.41963 10.3464C3.52493 9.73234 3.71703 9.13631 3.99017 8.57614C4.79929 6.84731 6.45903 5.96736 9.17686 5.96736H20.5876ZM20.8677 16.2058H9.03163C8.49883 16.2058 8.06691 16.6368 8.06691 17.1685C8.06691 17.7003 8.49883 18.1313 9.03163 18.1313H20.795C21.0527 18.1425 21.3041 18.0503 21.4932 17.8752C21.6822 17.7002 21.7932 17.4569 21.8013 17.1996C21.8158 16.9735 21.7414 16.7506 21.5938 16.5785C21.424 16.3471 21.155 16.209 20.8677 16.2058Z" fill="#A9A9A9"/>
</svg>
