<svg width="38" height="28" viewBox="0 0 38 28" fill="none" xmlns="http://www.w3.org/2000/svg">
<g clip-path="url(#clip0)">
<path d="M18.9951 18.6378L7.66211 14.3707V18.5688V21.4975C7.66211 24.7923 12.7377 27.4635 18.9985 27.4635C25.2589 27.4635 30.3354 24.7923 30.3354 21.4975C30.3354 21.4715 30.3284 21.4455 30.328 21.4201V14.3707L18.9951 18.6378Z" fill="#2AB34E"/>
<path d="M0 9.46471L4.04868 11.2364L4.3937 10.3325L5.88108 10.1778L6.09315 10.4477L4.81684 10.818L4.63082 11.4915C4.63048 11.4915 1.74786 18.8639 2.17123 22.4706C2.17123 22.4706 3.97057 23.7836 5.76914 22.4706L6.24711 12.6097V11.7889L8.92439 11.05L8.7353 11.6197L6.73915 12.4138L7.66237 12.8172L18.9953 17.0844L30.3282 12.8172L37.9905 9.46477L18.9953 0.524658L0 9.46471Z" fill="#555555"/>
</g>
<defs>
<clipPath id="clip0">
<rect width="38" height="27" fill="white" transform="translate(0 0.5)"/>
</clipPath>
</defs>
</svg>
