<svg width="127" height="75" viewBox="0 0 127 75" fill="none" xmlns="http://www.w3.org/2000/svg">
<path d="M9.99 42.918C9.99 43.458 9.84 43.926 9.54 44.322C9.252 44.706 8.832 45.006 8.28 45.222C8.976 45.45 9.498 45.786 9.846 46.23C10.194 46.674 10.368 47.208 10.368 47.832C10.368 48.996 9.936 49.86 9.072 50.424C8.22 50.988 6.984 51.27 5.364 51.27C5.148 51.27 4.902 51.264 4.626 51.252C4.362 51.24 4.086 51.216 3.798 51.18C3.522 51.156 3.24 51.114 2.952 51.054C2.676 51.006 2.424 50.94 2.196 50.856C1.572 50.628 1.26 50.22 1.26 49.632V41.064C1.26 40.824 1.32 40.638 1.44 40.506C1.572 40.374 1.758 40.272 1.998 40.2C2.394 40.068 2.886 39.972 3.474 39.912C4.062 39.84 4.668 39.804 5.292 39.804C6.792 39.804 7.95 40.062 8.766 40.578C9.582 41.082 9.99 41.862 9.99 42.918ZM7.488 47.706C7.488 46.854 6.942 46.428 5.85 46.428H3.996V48.948C4.188 48.996 4.428 49.032 4.716 49.056C5.004 49.08 5.28 49.092 5.544 49.092C6.12 49.092 6.588 48.984 6.948 48.768C7.308 48.54 7.488 48.186 7.488 47.706ZM3.996 44.43H5.67C6.138 44.43 6.504 44.322 6.768 44.106C7.032 43.89 7.164 43.572 7.164 43.152C7.164 42.768 7.008 42.474 6.696 42.27C6.396 42.054 5.94 41.946 5.328 41.946C5.1 41.946 4.86 41.958 4.608 41.982C4.356 41.994 4.152 42.012 3.996 42.036V44.43ZM21.0462 43.602C21.0462 44.298 20.8602 44.922 20.4882 45.474C20.1282 46.026 19.6362 46.464 19.0122 46.788C19.5042 47.436 19.9722 48.048 20.4162 48.624C20.8722 49.188 21.2082 49.644 21.4242 49.992C21.3162 50.376 21.1122 50.67 20.8122 50.874C20.5242 51.066 20.2062 51.162 19.8582 51.162C19.4022 51.162 19.0542 51.066 18.8142 50.874C18.5742 50.67 18.3462 50.394 18.1302 50.046L16.4022 47.364H15.1602V50.982C15.0282 51.018 14.8422 51.048 14.6022 51.072C14.3622 51.108 14.1102 51.126 13.8462 51.126C13.2822 51.126 12.8862 51.03 12.6582 50.838C12.4422 50.646 12.3342 50.298 12.3342 49.794V41.064C12.3342 40.824 12.3942 40.638 12.5142 40.506C12.6462 40.374 12.8322 40.272 13.0722 40.2C13.4562 40.056 13.9182 39.954 14.4582 39.894C14.9982 39.834 15.5622 39.804 16.1502 39.804C17.7822 39.804 19.0062 40.146 19.8222 40.83C20.6382 41.502 21.0462 42.426 21.0462 43.602ZM16.2402 45.186C16.8162 45.186 17.2842 45.06 17.6442 44.808C18.0042 44.544 18.1842 44.148 18.1842 43.62C18.1842 42.588 17.4942 42.072 16.1142 42.072C15.9222 42.072 15.7482 42.084 15.5922 42.108C15.4362 42.12 15.2802 42.138 15.1242 42.162V45.186H16.2402ZM29.4393 48.606H25.9113C25.7793 49.038 25.6533 49.464 25.5333 49.884C25.4253 50.304 25.3293 50.676 25.2453 51C25.0893 51.048 24.9273 51.09 24.7593 51.126C24.5913 51.162 24.3873 51.18 24.1473 51.18C23.6193 51.18 23.2173 51.09 22.9413 50.91C22.6773 50.718 22.5453 50.448 22.5453 50.1C22.5453 49.932 22.5693 49.77 22.6173 49.614C22.6653 49.458 22.7193 49.278 22.7793 49.074C22.8633 48.75 22.9833 48.348 23.1393 47.868C23.2953 47.388 23.4633 46.872 23.6433 46.32C23.8353 45.756 24.0333 45.18 24.2373 44.592C24.4413 44.004 24.6393 43.446 24.8313 42.918C25.0233 42.378 25.1973 41.886 25.3533 41.442C25.5093 40.998 25.6413 40.644 25.7493 40.38C25.9293 40.272 26.2053 40.17 26.5773 40.074C26.9613 39.978 27.3393 39.93 27.7113 39.93C28.2513 39.93 28.7253 40.008 29.1333 40.164C29.5533 40.308 29.8233 40.554 29.9433 40.902C30.1713 41.538 30.4173 42.276 30.6813 43.116C30.9453 43.956 31.2093 44.82 31.4733 45.708C31.7493 46.596 32.0133 47.472 32.2653 48.336C32.5173 49.2 32.7393 49.974 32.9313 50.658C32.7993 50.814 32.6013 50.94 32.3373 51.036C32.0853 51.132 31.7793 51.18 31.4193 51.18C30.9033 51.18 30.5373 51.09 30.3213 50.91C30.1173 50.73 29.9673 50.448 29.8713 50.064L29.4393 48.606ZM27.6933 42.45C27.5253 42.99 27.3153 43.608 27.0633 44.304C26.8233 44.988 26.5953 45.69 26.3793 46.41H28.9533C28.7493 45.654 28.5393 44.934 28.3233 44.25C28.1193 43.554 27.9453 42.954 27.8013 42.45H27.6933ZM36.0474 51.126C35.4834 51.126 35.0874 51.03 34.8594 50.838C34.6434 50.646 34.5354 50.298 34.5354 49.794V40.056C34.6674 40.032 34.8534 40.002 35.0934 39.966C35.3454 39.93 35.5974 39.912 35.8494 39.912C36.3894 39.912 36.7734 40.002 37.0014 40.182C37.2414 40.362 37.3614 40.716 37.3614 41.244V50.982C37.2294 51.018 37.0434 51.048 36.8034 51.072C36.5634 51.108 36.3114 51.126 36.0474 51.126ZM47.1691 48.282C47.0251 48.402 46.8391 48.498 46.6111 48.57C46.3831 48.642 46.1251 48.678 45.8371 48.678C45.4531 48.678 45.1291 48.63 44.8651 48.534C44.6131 48.438 44.4451 48.27 44.3611 48.03C43.9771 46.914 43.6471 45.99 43.3711 45.258C43.1071 44.514 42.8971 43.872 42.7411 43.332H42.6691C42.6331 44.076 42.6031 44.76 42.5791 45.384C42.5551 45.996 42.5311 46.596 42.5071 47.184C42.4951 47.772 42.4771 48.366 42.4531 48.966C42.4291 49.566 42.3991 50.226 42.3631 50.946C42.2311 50.994 42.0511 51.036 41.8231 51.072C41.6071 51.12 41.3791 51.144 41.1391 51.144C40.6711 51.144 40.3051 51.066 40.0411 50.91C39.7771 50.742 39.6451 50.46 39.6451 50.064C39.6451 49.836 39.6511 49.524 39.6631 49.128C39.6871 48.72 39.7111 48.258 39.7351 47.742C39.7711 47.214 39.8071 46.65 39.8431 46.05C39.8911 45.45 39.9331 44.844 39.9691 44.232C40.0171 43.608 40.0591 42.996 40.0951 42.396C40.1311 41.784 40.1671 41.22 40.2031 40.704C40.2991 40.572 40.4911 40.428 40.7791 40.272C41.0791 40.104 41.4931 40.02 42.0211 40.02C42.5851 40.02 43.0291 40.11 43.3531 40.29C43.6771 40.47 43.9231 40.764 44.0911 41.172C44.2231 41.496 44.3611 41.862 44.5051 42.27C44.6491 42.666 44.7931 43.074 44.9371 43.494C45.0811 43.914 45.2191 44.334 45.3511 44.754C45.4951 45.162 45.6271 45.54 45.7471 45.888H45.8371C46.1731 44.832 46.5091 43.812 46.8451 42.828C47.1811 41.832 47.4751 40.998 47.7271 40.326C47.8951 40.242 48.1051 40.17 48.3571 40.11C48.6211 40.05 48.9091 40.02 49.2211 40.02C49.7611 40.02 50.1931 40.098 50.5171 40.254C50.8411 40.41 51.0331 40.638 51.0931 40.938C51.1411 41.178 51.1951 41.544 51.2551 42.036C51.3151 42.528 51.3751 43.092 51.4351 43.728C51.4951 44.364 51.5551 45.036 51.6151 45.744C51.6751 46.44 51.7291 47.118 51.7771 47.778C51.8251 48.426 51.8671 49.02 51.9031 49.56C51.9391 50.1 51.9631 50.52 51.9751 50.82C51.7951 50.928 51.6031 51.006 51.3991 51.054C51.1951 51.114 50.9371 51.144 50.6251 51.144C50.2291 51.144 49.8871 51.072 49.5991 50.928C49.3231 50.784 49.1731 50.502 49.1491 50.082C49.0651 48.69 49.0051 47.418 48.9691 46.266C48.9451 45.102 48.9151 44.148 48.8791 43.404H48.7891C48.6451 43.908 48.4351 44.544 48.1591 45.312C47.8951 46.08 47.5651 47.07 47.1691 48.282ZM62.4431 41.208C62.4431 41.352 62.3891 41.556 62.2811 41.82C62.1851 42.084 62.0111 42.45 61.7591 42.918C61.5071 43.386 61.1651 43.98 60.7331 44.7C60.3131 45.42 59.7791 46.302 59.1311 47.346V50.982C58.9991 51.018 58.8131 51.048 58.5731 51.072C58.3451 51.108 58.1051 51.126 57.8531 51.126C57.2891 51.126 56.8991 51.03 56.6831 50.838C56.4671 50.646 56.3591 50.31 56.3591 49.83V47.328C56.0471 46.872 55.7111 46.362 55.3511 45.798C54.9911 45.222 54.6371 44.646 54.2891 44.07C53.9411 43.482 53.6171 42.906 53.3171 42.342C53.0171 41.778 52.7771 41.274 52.5971 40.83C52.7291 40.626 52.9151 40.44 53.1551 40.272C53.4071 40.104 53.7131 40.02 54.0731 40.02C54.4931 40.02 54.8351 40.11 55.0991 40.29C55.3631 40.458 55.6151 40.782 55.8551 41.262C55.8791 41.298 55.9391 41.412 56.0351 41.604C56.1311 41.784 56.2391 42 56.3591 42.252C56.4911 42.492 56.6291 42.756 56.7731 43.044C56.9171 43.332 57.0491 43.602 57.1691 43.854C57.3011 44.094 57.4151 44.304 57.5111 44.484C57.6071 44.664 57.6671 44.772 57.6911 44.808H57.7811C57.9731 44.412 58.1471 44.034 58.3031 43.674C58.4711 43.314 58.6331 42.96 58.7891 42.612C58.9451 42.252 59.1011 41.892 59.2571 41.532C59.4251 41.16 59.5991 40.758 59.7791 40.326C59.9711 40.23 60.1811 40.158 60.4091 40.11C60.6491 40.05 60.8711 40.02 61.0751 40.02C61.4591 40.02 61.7831 40.122 62.0471 40.326C62.3111 40.53 62.4431 40.824 62.4431 41.208Z" fill="#555555"/>
<path d="M2.24 67.016C1.96267 67.016 1.73867 66.9307 1.568 66.76C1.39733 66.5893 1.312 66.3653 1.312 66.088V57.288C1.39733 57.2667 1.50933 57.2453 1.648 57.224C1.79733 57.192 1.952 57.176 2.112 57.176C2.42133 57.176 2.65067 57.2347 2.8 57.352C2.96 57.4693 3.04 57.6773 3.04 57.976V65.576H7.376C7.42933 65.6507 7.47733 65.7467 7.52 65.864C7.56267 65.9813 7.584 66.1147 7.584 66.264C7.584 66.5093 7.52533 66.696 7.408 66.824C7.29067 66.952 7.136 67.016 6.944 67.016H2.24ZM10.3063 64.104C10.4556 64.712 10.7436 65.1653 11.1703 65.464C11.6076 65.752 12.1623 65.896 12.8343 65.896C13.2823 65.896 13.6929 65.8267 14.0663 65.688C14.4396 65.5493 14.7383 65.4 14.9623 65.24C15.2609 65.4107 15.4103 65.6507 15.4103 65.96C15.4103 66.1413 15.3409 66.312 15.2023 66.472C15.0636 66.6213 14.8716 66.7547 14.6263 66.872C14.3916 66.9787 14.1089 67.064 13.7783 67.128C13.4583 67.192 13.1116 67.224 12.7383 67.224C12.1196 67.224 11.5543 67.1387 11.0423 66.968C10.5409 66.7973 10.1089 66.5413 9.74625 66.2C9.38358 65.8587 9.10092 65.4373 8.89825 64.936C8.70625 64.4347 8.61025 63.8533 8.61025 63.192C8.61025 62.552 8.70625 61.992 8.89825 61.512C9.09025 61.0213 9.35158 60.616 9.68225 60.296C10.0129 59.9653 10.4023 59.7147 10.8503 59.544C11.2983 59.3733 11.7783 59.288 12.2903 59.288C12.8023 59.288 13.2663 59.3733 13.6823 59.544C14.1089 59.704 14.4716 59.9333 14.7703 60.232C15.0796 60.52 15.3143 60.8667 15.4743 61.272C15.6449 61.6773 15.7303 62.12 15.7303 62.6C15.7303 62.8667 15.6663 63.064 15.5383 63.192C15.4103 63.3093 15.2236 63.3893 14.9783 63.432L10.3063 64.104ZM12.2903 60.584C11.7036 60.584 11.2129 60.7813 10.8183 61.176C10.4343 61.5707 10.2316 62.136 10.2103 62.872L14.1463 62.312C14.1036 61.832 13.9276 61.4267 13.6183 61.096C13.3089 60.7547 12.8663 60.584 12.2903 60.584ZM20.2638 65.928C20.6371 65.928 20.9624 65.8907 21.2398 65.816C21.5171 65.7413 21.7144 65.6613 21.8318 65.576V63.544L20.0878 63.72C19.5971 63.7733 19.2291 63.8853 18.9838 64.056C18.7384 64.216 18.6158 64.4667 18.6158 64.808C18.6158 65.16 18.7491 65.4373 19.0158 65.64C19.2824 65.832 19.6984 65.928 20.2638 65.928ZM20.2318 59.288C21.2238 59.288 22.0131 59.5067 22.5998 59.944C23.1864 60.3707 23.4798 61.048 23.4798 61.976V65.704C23.4798 65.9493 23.4211 66.1413 23.3038 66.28C23.1971 66.408 23.0478 66.5307 22.8558 66.648C22.5784 66.808 22.2211 66.9467 21.7838 67.064C21.3464 67.1813 20.8398 67.24 20.2638 67.24C19.2291 67.24 18.4184 67.0373 17.8318 66.632C17.2558 66.2267 16.9678 65.6293 16.9678 64.84C16.9678 64.136 17.1918 63.5973 17.6398 63.224C18.0984 62.8507 18.7544 62.6213 19.6078 62.536L21.8318 62.312V61.96C21.8318 61.4907 21.6771 61.1493 21.3678 60.936C21.0691 60.7227 20.6478 60.616 20.1038 60.616C19.6771 60.616 19.2664 60.6747 18.8718 60.792C18.4771 60.9093 18.1251 61.0427 17.8158 61.192C17.7091 61.1067 17.6184 61.0053 17.5438 60.888C17.4691 60.76 17.4318 60.6213 17.4318 60.472C17.4318 60.2907 17.4744 60.1413 17.5598 60.024C17.6558 59.9067 17.7998 59.8053 17.9918 59.72C18.2904 59.5707 18.6318 59.464 19.0158 59.4C19.3998 59.3253 19.8051 59.288 20.2318 59.288ZM27.2836 66.968C27.209 67 27.1023 67.0267 26.9636 67.048C26.8356 67.08 26.6916 67.096 26.5316 67.096C26.2223 67.096 25.993 67.0373 25.8436 66.92C25.6943 66.8027 25.6196 66.6053 25.6196 66.328V61.08C25.6196 60.8133 25.673 60.6 25.7796 60.44C25.8863 60.2693 26.057 60.1093 26.2916 59.96C26.601 59.768 26.9956 59.608 27.4756 59.48C27.9556 59.352 28.4836 59.288 29.0596 59.288C29.9983 59.288 30.4676 59.5547 30.4676 60.088C30.4676 60.216 30.4463 60.3387 30.4036 60.456C30.361 60.5627 30.313 60.6587 30.2596 60.744C30.153 60.7227 30.0196 60.7013 29.8596 60.68C29.6996 60.6587 29.529 60.648 29.3476 60.648C28.921 60.648 28.5316 60.696 28.1796 60.792C27.8276 60.8773 27.529 60.9893 27.2836 61.128V66.968ZM36.8163 62.152C36.8163 61.6293 36.6669 61.2453 36.3683 61C36.0803 60.7547 35.6856 60.632 35.1843 60.632C34.8109 60.632 34.4749 60.68 34.1763 60.776C33.8883 60.872 33.6376 60.9787 33.4243 61.096V66.968C33.3496 67 33.2429 67.0267 33.1043 67.048C32.9763 67.08 32.8323 67.096 32.6723 67.096C32.3629 67.096 32.1336 67.0373 31.9843 66.92C31.8349 66.8027 31.7603 66.6053 31.7603 66.328V61.048C31.7603 60.8027 31.8083 60.6053 31.9043 60.456C32.0003 60.3067 32.1603 60.1573 32.3843 60.008C32.6829 59.8267 33.0723 59.6613 33.5523 59.512C34.0323 59.3627 34.5763 59.288 35.1843 59.288C36.2189 59.288 37.0296 59.5227 37.6163 59.992C38.2029 60.4507 38.4963 61.1493 38.4963 62.088V66.968C38.4216 67 38.3149 67.0267 38.1763 67.048C38.0376 67.08 37.8883 67.096 37.7283 67.096C37.4189 67.096 37.1896 67.0373 37.0403 66.92C36.8909 66.8027 36.8163 66.6053 36.8163 66.328V62.152ZM42.4418 66.968C42.3671 67 42.2604 67.0267 42.1218 67.048C41.9938 67.08 41.8444 67.096 41.6738 67.096C41.3644 67.096 41.1351 67.0373 40.9858 66.92C40.8364 66.8027 40.7618 66.6053 40.7618 66.328V59.56C40.8471 59.5387 40.9538 59.512 41.0818 59.48C41.2204 59.448 41.3751 59.432 41.5458 59.432C41.8551 59.432 42.0791 59.4907 42.2178 59.608C42.3671 59.7253 42.4418 59.928 42.4418 60.216V66.968ZM40.5858 57.208C40.5858 56.9307 40.6818 56.7013 40.8738 56.52C41.0658 56.328 41.3111 56.232 41.6098 56.232C41.9084 56.232 42.1484 56.328 42.3298 56.52C42.5111 56.7013 42.6018 56.9307 42.6018 57.208C42.6018 57.4853 42.5111 57.72 42.3298 57.912C42.1484 58.0933 41.9084 58.184 41.6098 58.184C41.3111 58.184 41.0658 58.0933 40.8738 57.912C40.6818 57.72 40.5858 57.4853 40.5858 57.208ZM49.785 62.152C49.785 61.6293 49.6357 61.2453 49.337 61C49.049 60.7547 48.6543 60.632 48.153 60.632C47.7797 60.632 47.4437 60.68 47.145 60.776C46.857 60.872 46.6063 60.9787 46.393 61.096V66.968C46.3183 67 46.2117 67.0267 46.073 67.048C45.945 67.08 45.801 67.096 45.641 67.096C45.3317 67.096 45.1023 67.0373 44.953 66.92C44.8037 66.8027 44.729 66.6053 44.729 66.328V61.048C44.729 60.8027 44.777 60.6053 44.873 60.456C44.969 60.3067 45.129 60.1573 45.353 60.008C45.6517 59.8267 46.041 59.6613 46.521 59.512C47.001 59.3627 47.545 59.288 48.153 59.288C49.1877 59.288 49.9983 59.5227 50.585 59.992C51.1717 60.4507 51.465 61.1493 51.465 62.088V66.968C51.3903 67 51.2837 67.0267 51.145 67.048C51.0063 67.08 50.857 67.096 50.697 67.096C50.3877 67.096 50.1583 67.0373 50.009 66.92C49.8597 66.8027 49.785 66.6053 49.785 66.328V62.152ZM58.5625 66.296C58.3598 66.424 58.1092 66.5307 57.8105 66.616C57.5225 66.7013 57.1758 66.744 56.7705 66.744C56.3012 66.744 55.8532 66.68 55.4265 66.552C55.0105 66.4133 54.6425 66.2 54.3225 65.912C54.0025 65.6133 53.7465 65.2293 53.5545 64.76C53.3732 64.2907 53.2825 63.7147 53.2825 63.032C53.2825 62.4133 53.3732 61.8747 53.5545 61.416C53.7465 60.9467 54.0078 60.5573 54.3385 60.248C54.6798 59.928 55.0798 59.688 55.5385 59.528C56.0078 59.368 56.5252 59.288 57.0905 59.288C57.6132 59.288 58.0932 59.3573 58.5305 59.496C58.9785 59.624 59.3412 59.7787 59.6185 59.96C59.7998 60.0773 59.9385 60.2107 60.0345 60.36C60.1412 60.5093 60.1945 60.6907 60.1945 60.904V67.208C60.1945 67.7413 60.0985 68.2 59.9065 68.584C59.7252 68.968 59.4692 69.2773 59.1385 69.512C58.8185 69.7573 58.4345 69.9333 57.9865 70.04C57.5385 70.1573 57.0585 70.216 56.5465 70.216C56.0025 70.216 55.5332 70.1627 55.1385 70.056C54.7438 69.9493 54.4558 69.8427 54.2745 69.736C53.9438 69.5333 53.7785 69.2667 53.7785 68.936C53.7785 68.7547 53.8158 68.6 53.8905 68.472C53.9652 68.3547 54.0612 68.2587 54.1785 68.184C54.4238 68.3547 54.7492 68.5093 55.1545 68.648C55.5598 68.7867 55.9918 68.856 56.4505 68.856C57.1225 68.856 57.6398 68.7173 58.0025 68.44C58.3758 68.1733 58.5625 67.736 58.5625 67.128V66.296ZM57.0105 65.432C57.3732 65.432 57.6772 65.3787 57.9225 65.272C58.1678 65.1653 58.3758 65.0373 58.5465 64.888V61.016C58.3865 60.92 58.1892 60.8347 57.9545 60.76C57.7198 60.6747 57.4425 60.632 57.1225 60.632C56.4718 60.632 55.9492 60.8293 55.5545 61.224C55.1598 61.6187 54.9625 62.216 54.9625 63.016C54.9625 63.4533 55.0158 63.8267 55.1225 64.136C55.2292 64.4453 55.3732 64.696 55.5545 64.888C55.7358 65.08 55.9492 65.2187 56.1945 65.304C56.4505 65.3893 56.7225 65.432 57.0105 65.432ZM68.9804 67.224C68.639 67.224 68.319 67.1867 68.0204 67.112C67.7217 67.048 67.4657 66.9627 67.2524 66.856V69.864C67.1777 69.896 67.071 69.9227 66.9324 69.944C66.8044 69.976 66.6604 69.992 66.5004 69.992C66.191 69.992 65.9617 69.9333 65.8124 69.816C65.663 69.6987 65.5884 69.496 65.5884 69.208V60.936C65.5884 60.7013 65.631 60.5147 65.7164 60.376C65.8017 60.2267 65.9617 60.0827 66.1964 59.944C66.495 59.7733 66.8577 59.624 67.2844 59.496C67.7217 59.3573 68.2124 59.288 68.7564 59.288C69.311 59.288 69.8284 59.368 70.3084 59.528C70.7884 59.6773 71.2044 59.912 71.5564 60.232C71.9084 60.552 72.1857 60.9627 72.3884 61.464C72.591 61.9547 72.6924 62.5413 72.6924 63.224C72.6924 63.896 72.5964 64.4827 72.4044 64.984C72.223 65.4747 71.967 65.8907 71.6364 66.232C71.3164 66.5627 70.927 66.8133 70.4684 66.984C70.0204 67.144 69.5244 67.224 68.9804 67.224ZM68.7244 65.864C69.4177 65.864 69.967 65.656 70.3724 65.24C70.7777 64.8133 70.9804 64.1413 70.9804 63.224C70.9804 62.7547 70.9217 62.3547 70.8044 62.024C70.687 61.6933 70.527 61.4267 70.3244 61.224C70.1324 61.0107 69.8977 60.8613 69.6204 60.776C69.3537 60.68 69.0657 60.632 68.7564 60.632C68.415 60.632 68.1217 60.6747 67.8764 60.76C67.6417 60.8347 67.4337 60.9253 67.2524 61.032V65.432C67.4337 65.56 67.647 65.6667 67.8924 65.752C68.1377 65.8267 68.415 65.864 68.7244 65.864ZM75.5186 67.096C75.2093 67.096 74.98 67.0373 74.8306 66.92C74.6813 66.8027 74.6066 66.6053 74.6066 66.328V56.616C74.6813 56.5947 74.788 56.568 74.9266 56.536C75.0653 56.504 75.2146 56.488 75.3746 56.488C75.684 56.488 75.9133 56.5467 76.0626 56.664C76.212 56.7813 76.2866 56.9787 76.2866 57.256V66.968C76.2013 67 76.0893 67.0267 75.9506 67.048C75.8226 67.08 75.6786 67.096 75.5186 67.096ZM81.4044 65.928C81.7777 65.928 82.103 65.8907 82.3804 65.816C82.6577 65.7413 82.855 65.6613 82.9724 65.576V63.544L81.2284 63.72C80.7377 63.7733 80.3697 63.8853 80.1244 64.056C79.879 64.216 79.7564 64.4667 79.7564 64.808C79.7564 65.16 79.8897 65.4373 80.1564 65.64C80.423 65.832 80.839 65.928 81.4044 65.928ZM81.3724 59.288C82.3644 59.288 83.1537 59.5067 83.7404 59.944C84.327 60.3707 84.6204 61.048 84.6204 61.976V65.704C84.6204 65.9493 84.5617 66.1413 84.4444 66.28C84.3377 66.408 84.1884 66.5307 83.9964 66.648C83.719 66.808 83.3617 66.9467 82.9244 67.064C82.487 67.1813 81.9804 67.24 81.4044 67.24C80.3697 67.24 79.559 67.0373 78.9724 66.632C78.3964 66.2267 78.1084 65.6293 78.1084 64.84C78.1084 64.136 78.3324 63.5973 78.7804 63.224C79.239 62.8507 79.895 62.6213 80.7484 62.536L82.9724 62.312V61.96C82.9724 61.4907 82.8177 61.1493 82.5084 60.936C82.2097 60.7227 81.7884 60.616 81.2444 60.616C80.8177 60.616 80.407 60.6747 80.0124 60.792C79.6177 60.9093 79.2657 61.0427 78.9564 61.192C78.8497 61.1067 78.759 61.0053 78.6844 60.888C78.6097 60.76 78.5724 60.6213 78.5724 60.472C78.5724 60.2907 78.615 60.1413 78.7004 60.024C78.7964 59.9067 78.9404 59.8053 79.1324 59.72C79.431 59.5707 79.7724 59.464 80.1564 59.4C80.5404 59.3253 80.9457 59.288 81.3724 59.288ZM88.4403 64.808C88.4403 65.192 88.5523 65.464 88.7763 65.624C89.0003 65.784 89.3149 65.864 89.7203 65.864C89.9016 65.864 90.0936 65.8373 90.2963 65.784C90.4989 65.7307 90.6749 65.6667 90.8243 65.592C90.8989 65.6773 90.9629 65.7733 91.0163 65.88C91.0803 65.9867 91.1123 66.1147 91.1123 66.264C91.1123 66.5413 90.9683 66.7707 90.6803 66.952C90.4029 67.1333 89.9763 67.224 89.4003 67.224C88.6003 67.224 87.9603 67.048 87.4803 66.696C87.0109 66.3333 86.7763 65.7413 86.7763 64.92V57.448C86.8509 57.4267 86.9576 57.4 87.0963 57.368C87.2349 57.336 87.3843 57.32 87.5443 57.32C87.8536 57.32 88.0776 57.3787 88.2163 57.496C88.3656 57.6133 88.4403 57.8107 88.4403 58.088V59.672H90.9203C90.9629 59.736 91.0003 59.8267 91.0323 59.944C91.0749 60.0613 91.0963 60.184 91.0963 60.312C91.0963 60.7707 90.8989 61 90.5043 61H88.4403V64.808ZM94.4708 59.976H97.4948C97.5374 60.04 97.5748 60.1307 97.6068 60.248C97.6494 60.3547 97.6708 60.4827 97.6708 60.632C97.6708 61.08 97.4681 61.304 97.0628 61.304H94.5188V66.968C94.4441 67 94.3374 67.0267 94.1988 67.048C94.0708 67.08 93.9268 67.096 93.7668 67.096C93.4574 67.096 93.2281 67.0373 93.0788 66.92C92.9294 66.8027 92.8548 66.6053 92.8548 66.328V59.032C92.8548 58.5413 92.9241 58.12 93.0628 57.768C93.2121 57.416 93.4201 57.128 93.6868 56.904C93.9534 56.68 94.2734 56.5147 94.6468 56.408C95.0308 56.3013 95.4521 56.248 95.9108 56.248C96.5721 56.248 97.0788 56.3333 97.4308 56.504C97.7828 56.6747 97.9588 56.9147 97.9588 57.224C97.9588 57.3733 97.9268 57.5067 97.8628 57.624C97.8094 57.7307 97.7401 57.8267 97.6548 57.912C97.4521 57.8267 97.2174 57.752 96.9508 57.688C96.6841 57.624 96.4121 57.592 96.1348 57.592C95.5374 57.592 95.1108 57.7093 94.8548 57.944C94.5988 58.1787 94.4708 58.5627 94.4708 59.096V59.976ZM106.085 63.256C106.085 63.864 105.994 64.4133 105.813 64.904C105.632 65.3947 105.376 65.8107 105.045 66.152C104.725 66.4933 104.33 66.76 103.861 66.952C103.392 67.1333 102.869 67.224 102.293 67.224C101.717 67.224 101.194 67.1333 100.725 66.952C100.256 66.76 99.8555 66.4933 99.5249 66.152C99.2049 65.8107 98.9542 65.3947 98.7729 64.904C98.5915 64.4133 98.5009 63.864 98.5009 63.256C98.5009 62.648 98.5915 62.0987 98.7729 61.608C98.9542 61.1173 99.2102 60.7013 99.5409 60.36C99.8715 60.0187 100.272 59.7573 100.741 59.576C101.21 59.384 101.728 59.288 102.293 59.288C102.858 59.288 103.376 59.384 103.845 59.576C104.314 59.7573 104.714 60.024 105.045 60.376C105.376 60.7173 105.632 61.1333 105.813 61.624C105.994 62.104 106.085 62.648 106.085 63.256ZM102.293 60.632C101.653 60.632 101.146 60.8613 100.773 61.32C100.4 61.7787 100.213 62.424 100.213 63.256C100.213 64.088 100.394 64.7333 100.757 65.192C101.12 65.64 101.632 65.864 102.293 65.864C102.954 65.864 103.466 65.64 103.829 65.192C104.192 64.7333 104.373 64.088 104.373 63.256C104.373 62.4347 104.186 61.7947 103.813 61.336C103.45 60.8667 102.944 60.632 102.293 60.632ZM109.549 66.968C109.475 67 109.368 67.0267 109.229 67.048C109.101 67.08 108.957 67.096 108.797 67.096C108.488 67.096 108.259 67.0373 108.109 66.92C107.96 66.8027 107.885 66.6053 107.885 66.328V61.08C107.885 60.8133 107.939 60.6 108.045 60.44C108.152 60.2693 108.323 60.1093 108.557 59.96C108.867 59.768 109.261 59.608 109.741 59.48C110.221 59.352 110.749 59.288 111.325 59.288C112.264 59.288 112.733 59.5547 112.733 60.088C112.733 60.216 112.712 60.3387 112.669 60.456C112.627 60.5627 112.579 60.6587 112.525 60.744C112.419 60.7227 112.285 60.7013 112.125 60.68C111.965 60.6587 111.795 60.648 111.613 60.648C111.187 60.648 110.797 60.696 110.445 60.792C110.093 60.8773 109.795 60.9893 109.549 61.128V66.968ZM123.338 61.992C123.338 61.5227 123.205 61.1813 122.938 60.968C122.682 60.744 122.33 60.632 121.882 60.632C121.583 60.632 121.295 60.6907 121.018 60.808C120.751 60.9147 120.506 61.064 120.282 61.256C120.303 61.3413 120.319 61.432 120.33 61.528C120.341 61.624 120.346 61.72 120.346 61.816V66.968C120.271 67 120.165 67.0267 120.026 67.048C119.887 67.08 119.743 67.096 119.594 67.096C119.285 67.096 119.055 67.0373 118.906 66.92C118.757 66.8027 118.682 66.6053 118.682 66.328V61.992C118.682 61.5227 118.549 61.1813 118.282 60.968C118.015 60.744 117.658 60.632 117.21 60.632C116.911 60.632 116.629 60.68 116.362 60.776C116.095 60.872 115.871 60.9787 115.69 61.096V66.968C115.615 67 115.509 67.0267 115.37 67.048C115.242 67.08 115.098 67.096 114.938 67.096C114.629 67.096 114.399 67.0373 114.25 66.92C114.101 66.8027 114.026 66.6053 114.026 66.328V61.048C114.026 60.8027 114.074 60.6053 114.17 60.456C114.266 60.3067 114.426 60.1573 114.65 60.008C114.959 59.8053 115.349 59.6347 115.818 59.496C116.287 59.3573 116.762 59.288 117.242 59.288C117.743 59.288 118.191 59.3573 118.586 59.496C118.991 59.6347 119.322 59.8373 119.578 60.104C119.877 59.8693 120.229 59.6773 120.634 59.528C121.05 59.368 121.53 59.288 122.074 59.288C122.49 59.288 122.879 59.3413 123.242 59.448C123.605 59.544 123.914 59.704 124.17 59.928C124.437 60.1413 124.645 60.4133 124.794 60.744C124.943 61.0747 125.018 61.4693 125.018 61.928V66.968C124.933 67 124.821 67.0267 124.682 67.048C124.554 67.08 124.41 67.096 124.25 67.096C123.941 67.096 123.711 67.0373 123.562 66.92C123.413 66.8027 123.338 66.6053 123.338 66.328V61.992Z" fill="#A9A9A9"/>
<g clip-path="url(#clip0)">
<path d="M27.5411 21.4967L11.1096 16.4393V21.4149V24.8859C11.1096 28.7908 18.4687 31.9568 27.5461 31.9568C36.6229 31.9568 43.9833 28.7908 43.9833 24.8859C43.9833 24.8552 43.9732 24.8243 43.9726 24.7943V16.4393L27.5411 21.4967Z" fill="#2AB34E"/>
<path d="M0 10.6249L5.87012 12.7247L6.37037 11.6534L8.52689 11.4701L8.83437 11.79L6.98386 12.2288L6.71416 13.0271C6.71367 13.0271 2.53419 21.7647 3.14803 26.0392C3.14803 26.0392 5.75687 27.5954 8.36459 26.0392L9.0576 14.3523V13.3795L12.9393 12.5038L12.6652 13.1789L9.77099 14.1201L11.1096 14.5983L27.5411 19.6557L43.9725 14.5983L55.082 10.625L27.5411 0.0292969L0 10.6249Z" fill="#555555"/>
</g>
<defs>
<clipPath id="clip0">
<rect width="55.0957" height="32" fill="white"/>
</clipPath>
</defs>
</svg>
