<svg width="29" height="28" viewBox="0 0 29 28" fill="none" xmlns="http://www.w3.org/2000/svg">
<path fill-rule="evenodd" clip-rule="evenodd" d="M19.5293 2.33337C23.1973 2.33337 25.6612 4.84521 25.6612 8.58321V19.3119C25.6612 23.0825 23.2731 25.5349 19.5771 25.5582L10.6019 25.5617C6.93392 25.5617 4.46875 23.0499 4.46875 19.3119V8.58321C4.46875 4.81137 6.85692 2.36021 10.5529 2.33804L19.5281 2.33337H19.5293ZM19.5293 4.08337L10.5587 4.08804C7.84275 4.10437 6.21875 5.78437 6.21875 8.58321V19.3119C6.21875 22.1294 7.85792 23.8117 10.6007 23.8117L19.5712 23.8082C22.2873 23.7919 23.9112 22.1095 23.9112 19.3119V8.58321C23.9112 5.76571 22.2733 4.08337 19.5293 4.08337ZM19.3042 18.0527C19.7872 18.0527 20.1792 18.4447 20.1792 18.9277C20.1792 19.4107 19.7872 19.8027 19.3042 19.8027H10.8809C10.3979 19.8027 10.0059 19.4107 10.0059 18.9277C10.0059 18.4447 10.3979 18.0527 10.8809 18.0527H19.3042ZM19.3042 13.1684C19.7872 13.1684 20.1792 13.5604 20.1792 14.0434C20.1792 14.5264 19.7872 14.9184 19.3042 14.9184H10.8809C10.3979 14.9184 10.0059 14.5264 10.0059 14.0434C10.0059 13.5604 10.3979 13.1684 10.8809 13.1684H19.3042ZM14.0947 8.29551C14.5777 8.29551 14.9697 8.68751 14.9697 9.17051C14.9697 9.65351 14.5777 10.0455 14.0947 10.0455H10.8805C10.3975 10.0455 10.0055 9.65351 10.0055 9.17051C10.0055 8.68751 10.3975 8.29551 10.8805 8.29551H14.0947Z" fill="#A9A9A9"/>
</svg>
