<svg width="25" height="24" viewBox="0 0 25 24" fill="none" xmlns="http://www.w3.org/2000/svg">
<path fill-rule="evenodd" clip-rule="evenodd" d="M10.1771 21.3276C10.7554 21.9717 11.4978 22.3256 12.2682 22.3256H12.2693C13.043 22.3256 13.7888 21.9717 14.3682 21.3265C14.6786 20.9838 15.2078 20.9559 15.5505 21.2651C15.8944 21.5743 15.9223 22.1046 15.613 22.4473C14.7109 23.4486 13.5242 24 12.2693 24H12.267C11.0155 23.9989 9.83097 23.4474 8.93224 22.4461C8.62298 22.1034 8.65089 21.5732 8.99476 21.2651C9.33862 20.9548 9.86781 20.9827 10.1771 21.3276ZM12.3238 0C17.2863 0 20.62 3.86456 20.62 7.47349C20.62 9.32986 21.0923 10.1168 21.5936 10.9518C22.0893 11.7756 22.6508 12.7111 22.6508 14.4793C22.2612 18.9968 17.5442 19.3652 12.3238 19.3652C7.10328 19.3652 2.3852 18.9968 2.00001 14.5507C1.99668 12.7111 2.55825 11.7756 3.05395 10.9518L3.22895 10.6573C3.65981 9.91687 4.02749 9.11146 4.02749 7.47349C4.02749 3.86456 7.36118 0 12.3238 0ZM12.3238 1.67442C8.4218 1.67442 5.70215 4.73079 5.70215 7.47349C5.70215 9.79423 5.05796 10.867 4.48858 11.8136C4.03195 12.5738 3.67134 13.1743 3.67134 14.4793C3.85779 16.5846 5.24776 17.6908 12.3238 17.6908C19.3607 17.6908 20.7942 16.5354 20.9795 14.4067C20.9762 13.1743 20.6156 12.5738 20.1589 11.8136C19.5896 10.867 18.9454 9.79423 18.9454 7.47349C18.9454 4.73079 16.2257 1.67442 12.3238 1.67442Z" fill="#A9A9A9"/>
</svg>
