<svg width="24" height="24" viewBox="0 0 24 24" fill="none" xmlns="http://www.w3.org/2000/svg">
<path d="M12 22C17.5228 22 22 17.5228 22 12C22 6.47715 17.5228 2 12 2C6.47715 2 2 6.47715 2 12C2 17.5228 6.47715 22 12 22Z" stroke="#A9A9A9" stroke-width="1.5" stroke-linecap="round" stroke-linejoin="round"/>
<path d="M9.08984 8.50203C9.32495 7.8337 9.789 7.27014 10.3998 6.91117C11.0106 6.55219 11.7287 6.42097 12.427 6.54075C13.1253 6.66052 13.7587 7.02356 14.2149 7.56556C14.6712 8.10757 14.9209 8.79356 14.9198 9.50203C14.9198 11.502 11.9198 12.502 11.9198 12.502V14.6593" stroke="#A9A9A9" stroke-width="1.5" stroke-linecap="round" stroke-linejoin="round"/>
<path d="M12 17.5024H12.01" stroke="#A9A9A9" stroke-width="1.5" stroke-linecap="round" stroke-linejoin="round"/>
</svg>
