<svg width="16" height="17" viewBox="0 0 16 17" fill="none" xmlns="http://www.w3.org/2000/svg">
<path fill-rule="evenodd" clip-rule="evenodd" d="M7.80425 0.5C11.8317 0.5 15.1078 3.776 15.1078 7.8035C15.1078 9.70366 14.3785 11.4367 13.1852 12.7374L15.5333 15.0805C15.7531 15.3003 15.7538 15.6558 15.534 15.8755C15.4246 15.9865 15.2798 16.0413 15.1358 16.0413C14.9925 16.0413 14.8485 15.9865 14.7383 15.877L12.3619 13.5073C11.1118 14.5084 9.52676 15.1077 7.80425 15.1077C3.77675 15.1077 0.5 11.831 0.5 7.8035C0.5 3.776 3.77675 0.5 7.80425 0.5ZM7.80425 1.625C4.397 1.625 1.625 4.39625 1.625 7.8035C1.625 11.2108 4.397 13.9827 7.80425 13.9827C11.2108 13.9827 13.9828 11.2108 13.9828 7.8035C13.9828 4.39625 11.2108 1.625 7.80425 1.625Z" fill="#A9A9A9"/>
</svg>
