<svg width="25" height="24" viewBox="0 0 25 24" fill="none" xmlns="http://www.w3.org/2000/svg">
<g clip-path="url(#clip0)">
<path fill-rule="evenodd" clip-rule="evenodd" d="M10.8387 14.5451L15.3404 21.8475C15.5373 22.1675 15.8451 22.1638 15.9694 22.1465C16.0937 22.1293 16.3929 22.053 16.5012 21.6899L22.1305 2.68022C22.2289 2.34421 22.048 2.11528 21.9667 2.03405C21.888 1.95282 21.6627 1.77928 21.3365 1.87159L2.31048 7.44218C1.9498 7.54803 1.87102 7.85081 1.85379 7.97512C1.83655 8.10189 1.83163 8.41574 2.15045 8.61636L9.53755 13.2356L16.0642 6.64093C16.4224 6.27908 17.0071 6.27538 17.3703 6.63355C17.7334 6.99171 17.7359 7.57757 17.3777 7.93942L10.8387 14.5451ZM15.8734 24.0001C15.0166 24.0001 14.2313 23.5644 13.7684 22.8161L8.99592 15.0731L1.17182 10.1807C0.328603 9.6527 -0.112087 8.71237 0.0245518 7.72404C0.159959 6.7357 0.838229 5.95045 1.79101 5.67106L20.817 0.100466C21.6922 -0.15554 22.6302 0.0869272 23.2753 0.729404C23.9203 1.37804 24.1603 2.32575 23.8994 3.20454L18.2701 22.213C17.9882 23.1693 17.2004 23.845 16.2144 23.9767C16.0987 23.9915 15.9866 24.0001 15.8734 24.0001Z" fill="#A9A9A9"/>
</g>
<defs>
<clipPath id="clip0">
<rect width="24.0035" height="24" fill="white"/>
</clipPath>
</defs>
</svg>
