<svg width="29" height="28" viewBox="0 0 29 28" fill="none" xmlns="http://www.w3.org/2000/svg">
<path d="M14.983 17.3017C13.1111 17.3017 11.5969 15.8434 11.5969 14.0117C11.5969 12.1801 13.1111 10.7101 14.983 10.7101C16.8549 10.7101 18.3333 12.1801 18.3333 14.0117C18.3333 15.8434 16.8549 17.3017 14.983 17.3017Z" fill="#A9A9A9"/>
<path opacity="0.4" d="M25.7374 16.765C25.5109 16.415 25.189 16.065 24.7717 15.8434C24.4378 15.68 24.2232 15.4117 24.0325 15.0967C23.4244 14.0934 23.7821 12.775 24.7955 12.18C25.9878 11.515 26.3693 10.0334 25.6778 8.87837L24.879 7.50171C24.1994 6.34671 22.709 5.93837 21.5287 6.61504C20.4795 7.17504 19.1322 6.80171 18.5241 5.81004C18.3334 5.48337 18.2261 5.13337 18.2499 4.78337C18.2857 4.32837 18.1426 3.89671 17.928 3.54671C17.4868 2.82337 16.688 2.33337 15.8057 2.33337H14.1246C13.2542 2.35671 12.4554 2.82337 12.0143 3.54671C11.7877 3.89671 11.6566 4.32837 11.6804 4.78337C11.7043 5.13337 11.597 5.48337 11.4062 5.81004C10.7981 6.80171 9.45085 7.17504 8.41356 6.61504C7.22127 5.93837 5.74284 6.34671 5.05132 7.50171L4.25249 8.87837C3.57289 10.0334 3.95442 11.515 5.13478 12.18C6.14822 12.775 6.5059 14.0934 5.90976 15.0967C5.70707 15.4117 5.49246 15.68 5.15862 15.8434C4.75325 16.065 4.39556 16.415 4.2048 16.765C3.76365 17.4884 3.7875 18.3984 4.22864 19.1567L5.05132 20.5567C5.49246 21.3034 6.31514 21.77 7.17358 21.77C7.57896 21.77 8.05587 21.6534 8.4374 21.42C8.73548 21.2217 9.09316 21.1517 9.48661 21.1517C10.667 21.1517 11.6566 22.12 11.6804 23.275C11.6804 24.6167 12.7773 25.6667 14.1604 25.6667H15.7819C17.153 25.6667 18.2499 24.6167 18.2499 23.275C18.2857 22.12 19.2753 21.1517 20.4556 21.1517C20.8372 21.1517 21.1948 21.2217 21.5048 21.42C21.8864 21.6534 22.3514 21.77 22.7687 21.77C23.6152 21.77 24.4378 21.3034 24.879 20.5567L25.7136 19.1567C26.1428 18.375 26.1786 17.4884 25.7374 16.765Z" fill="#A9A9A9"/>
</svg>
