<svg width="24" height="25" viewBox="0 0 24 25" fill="none" xmlns="http://www.w3.org/2000/svg">
<path fill-rule="evenodd" clip-rule="evenodd" d="M12.0029 4.43188C16.1389 4.43488 19.8529 7.33388 21.9389 12.1879C22.0209 12.3769 22.0209 12.5909 21.9389 12.7799C19.8539 17.6349 16.1389 20.5339 12.0029 20.5369H11.9969C7.86087 20.5339 4.14687 17.6349 2.06087 12.7799C1.97987 12.5909 1.97987 12.3769 2.06087 12.1879C4.14687 7.33388 7.86187 4.43488 11.9969 4.43188H12.0029ZM11.9999 5.93188C8.56387 5.93288 5.42987 8.37589 3.56987 12.4839C5.42987 16.5929 8.56287 19.0359 11.9999 19.0369C15.4369 19.0359 18.5699 16.5929 20.4299 12.4839C18.5699 8.37589 15.4369 5.93288 11.9999 5.93188ZM11.9996 8.57268C14.1566 8.57268 15.9116 10.3277 15.9116 12.4847C15.9116 14.6407 14.1566 16.3947 11.9996 16.3947C9.84257 16.3947 8.08857 14.6407 8.08857 12.4847C8.08857 10.3277 9.84257 8.57268 11.9996 8.57268ZM11.9996 10.0727C10.6696 10.0727 9.58857 11.1547 9.58857 12.4847C9.58857 13.8137 10.6696 14.8947 11.9996 14.8947C13.3296 14.8947 14.4116 13.8137 14.4116 12.4847C14.4116 11.1547 13.3296 10.0727 11.9996 10.0727Z" fill="#A9A9A9"/>
</svg>
