<svg width="85" height="82" viewBox="0 0 85 82" fill="none" xmlns="http://www.w3.org/2000/svg">
<rect width="84.9286" height="82" rx="16" fill="#F2F2F2"/>
<path d="M17.6914 35.8594H14.0352V46H12.543V35.8594H8.89453V34.625H17.6914V35.8594ZM23.4805 46C23.3971 45.8333 23.3294 45.5365 23.2773 45.1094C22.6055 45.8073 21.8034 46.1562 20.8711 46.1562C20.0378 46.1562 19.3529 45.9219 18.8164 45.4531C18.2852 44.9792 18.0195 44.3802 18.0195 43.6562C18.0195 42.776 18.3529 42.0938 19.0195 41.6094C19.6914 41.1198 20.6341 40.875 21.8477 40.875H23.2539V40.2109C23.2539 39.7057 23.1029 39.3047 22.8008 39.0078C22.4987 38.7057 22.0534 38.5547 21.4648 38.5547C20.9492 38.5547 20.5169 38.6849 20.168 38.9453C19.819 39.2057 19.6445 39.5208 19.6445 39.8906H18.1914C18.1914 39.4688 18.3398 39.0625 18.6367 38.6719C18.9388 38.276 19.3451 37.9635 19.8555 37.7344C20.3711 37.5052 20.9362 37.3906 21.5508 37.3906C22.5247 37.3906 23.2878 37.6354 23.8398 38.125C24.3919 38.6094 24.6784 39.2786 24.6992 40.1328V44.0234C24.6992 44.7995 24.7982 45.4167 24.9961 45.875V46H23.4805ZM21.082 44.8984C21.5352 44.8984 21.9648 44.7812 22.3711 44.5469C22.7773 44.3125 23.0716 44.0078 23.2539 43.6328V41.8984H22.1211C20.3503 41.8984 19.4648 42.4167 19.4648 43.4531C19.4648 43.9062 19.6159 44.2604 19.918 44.5156C20.2201 44.7708 20.6081 44.8984 21.082 44.8984ZM31.8867 43.7578C31.8867 43.3672 31.7383 43.0651 31.4414 42.8516C31.1497 42.6328 30.6367 42.4453 29.9023 42.2891C29.1732 42.1328 28.5924 41.9453 28.1602 41.7266C27.7331 41.5078 27.4154 41.2474 27.207 40.9453C27.0039 40.6432 26.9023 40.2839 26.9023 39.8672C26.9023 39.1745 27.194 38.5885 27.7773 38.1094C28.3659 37.6302 29.1159 37.3906 30.0273 37.3906C30.9857 37.3906 31.7617 37.638 32.3555 38.1328C32.9544 38.6276 33.2539 39.2604 33.2539 40.0312H31.8008C31.8008 39.6354 31.6315 39.2943 31.293 39.0078C30.9596 38.7214 30.5378 38.5781 30.0273 38.5781C29.5013 38.5781 29.0898 38.6927 28.793 38.9219C28.4961 39.151 28.3477 39.4505 28.3477 39.8203C28.3477 40.1693 28.4857 40.4323 28.7617 40.6094C29.0378 40.7865 29.5352 40.9557 30.2539 41.1172C30.9779 41.2786 31.5638 41.4714 32.0117 41.6953C32.4596 41.9193 32.7904 42.1901 33.0039 42.5078C33.2227 42.8203 33.332 43.2031 33.332 43.6562C33.332 44.4115 33.0299 45.0182 32.4258 45.4766C31.8216 45.9297 31.0378 46.1562 30.0742 46.1562C29.3971 46.1562 28.7982 46.0365 28.2773 45.7969C27.7565 45.5573 27.3477 45.224 27.0508 44.7969C26.7591 44.3646 26.6133 43.8984 26.6133 43.3984H28.0586C28.0846 43.8828 28.2773 44.2682 28.6367 44.5547C29.0013 44.8359 29.4805 44.9766 30.0742 44.9766C30.6211 44.9766 31.0586 44.8672 31.3867 44.6484C31.7201 44.4245 31.8867 44.1276 31.8867 43.7578ZM37.5742 42.0859L36.668 43.0312V46H35.2227V34H36.668V41.2578L37.4414 40.3281L40.0742 37.5469H41.832L38.543 41.0781L42.2148 46H40.5195L37.5742 42.0859ZM48.8633 46H47.418V37.5469H48.8633V46ZM47.3008 35.3047C47.3008 35.0703 47.3711 34.8724 47.5117 34.7109C47.6576 34.5495 47.8711 34.4688 48.1523 34.4688C48.4336 34.4688 48.6471 34.5495 48.793 34.7109C48.9388 34.8724 49.0117 35.0703 49.0117 35.3047C49.0117 35.5391 48.9388 35.7344 48.793 35.8906C48.6471 36.0469 48.4336 36.125 48.1523 36.125C47.8711 36.125 47.6576 36.0469 47.5117 35.8906C47.3711 35.7344 47.3008 35.5391 47.3008 35.3047ZM54.5742 44.9766C55.0898 44.9766 55.5404 44.8203 55.9258 44.5078C56.3112 44.1953 56.5247 43.8047 56.5664 43.3359H57.9336C57.9076 43.8203 57.7409 44.2812 57.4336 44.7188C57.1263 45.1562 56.7148 45.5052 56.1992 45.7656C55.6888 46.026 55.1471 46.1562 54.5742 46.1562C53.4232 46.1562 52.5065 45.7734 51.8242 45.0078C51.1471 44.237 50.8086 43.1849 50.8086 41.8516V41.6094C50.8086 40.7865 50.9596 40.0547 51.2617 39.4141C51.5638 38.7734 51.9961 38.276 52.5586 37.9219C53.1263 37.5677 53.7956 37.3906 54.5664 37.3906C55.5143 37.3906 56.3008 37.6745 56.9258 38.2422C57.556 38.8099 57.8919 39.5469 57.9336 40.4531H56.5664C56.5247 39.9062 56.3164 39.4583 55.9414 39.1094C55.5716 38.7552 55.1133 38.5781 54.5664 38.5781C53.832 38.5781 53.2617 38.8438 52.8555 39.375C52.4544 39.901 52.2539 40.6641 52.2539 41.6641V41.9375C52.2539 42.9115 52.4544 43.6615 52.8555 44.1875C53.2565 44.7135 53.8294 44.9766 54.5742 44.9766ZM59.1758 41.6953C59.1758 40.8672 59.3372 40.1224 59.6602 39.4609C59.9883 38.7995 60.4414 38.2891 61.0195 37.9297C61.6029 37.5703 62.2669 37.3906 63.0117 37.3906C64.1628 37.3906 65.0924 37.7891 65.8008 38.5859C66.5143 39.3828 66.8711 40.4427 66.8711 41.7656V41.8672C66.8711 42.6901 66.7122 43.4297 66.3945 44.0859C66.082 44.737 65.6315 45.2448 65.043 45.6094C64.4596 45.974 63.7878 46.1562 63.0273 46.1562C61.8815 46.1562 60.9518 45.7578 60.2383 44.9609C59.5299 44.1641 59.1758 43.1094 59.1758 41.7969V41.6953ZM60.6289 41.8672C60.6289 42.8047 60.8451 43.5573 61.2773 44.125C61.7148 44.6927 62.2982 44.9766 63.0273 44.9766C63.7617 44.9766 64.3451 44.6901 64.7773 44.1172C65.2096 43.5391 65.4258 42.7318 65.4258 41.6953C65.4258 40.7682 65.2044 40.0182 64.7617 39.4453C64.3242 38.8672 63.7409 38.5781 63.0117 38.5781C62.2982 38.5781 61.7227 38.862 61.2852 39.4297C60.8477 39.9974 60.6289 40.8099 60.6289 41.8672ZM70.0508 37.5469L70.0977 38.6094C70.7435 37.7969 71.5872 37.3906 72.6289 37.3906C74.4154 37.3906 75.3164 38.3984 75.332 40.4141V46H73.8867V40.4062C73.8815 39.7969 73.7409 39.3464 73.4648 39.0547C73.194 38.763 72.7695 38.6172 72.1914 38.6172C71.7227 38.6172 71.3112 38.7422 70.957 38.9922C70.6029 39.2422 70.3268 39.5703 70.1289 39.9766V46H68.6836V37.5469H70.0508Z" fill="#A9A9A9"/>
</svg>
