<svg width="29" height="28" viewBox="0 0 29 28" fill="none" xmlns="http://www.w3.org/2000/svg">
<path fill-rule="evenodd" clip-rule="evenodd" d="M18.3489 3.31582C18.8319 3.31582 19.2239 3.70782 19.2239 4.19082C19.2239 4.67382 18.8319 5.06582 18.3489 5.06582H9.86954C6.94354 5.06582 5.05237 7.07716 5.05237 10.1922V19.6212C5.05237 22.777 6.89804 24.737 9.86954 24.737H19.9075C22.8335 24.737 24.7247 22.7292 24.7247 19.6212V11.409C24.7247 10.926 25.1167 10.534 25.5997 10.534C26.0827 10.534 26.4747 10.926 26.4747 11.409V19.6212C26.4747 23.7278 23.8357 26.487 19.9075 26.487H9.86954C5.94137 26.487 3.30237 23.7278 3.30237 19.6212V10.1922C3.30237 6.07966 5.94137 3.31582 9.86954 3.31582H18.3489ZM20.8168 11.2839C21.1995 11.5803 21.2695 12.1298 20.9732 12.5113L17.5548 16.9213C17.4125 17.1056 17.2025 17.2258 16.9715 17.2538C16.7382 17.2853 16.5072 17.2176 16.3228 17.0741L13.0352 14.4911L10.0823 18.3283C9.90967 18.5523 9.65067 18.6701 9.38817 18.6701C9.2015 18.6701 9.01367 18.6106 8.855 18.4893C8.47234 18.1941 8.4 17.6446 8.69517 17.2619L12.187 12.7236C12.3293 12.5381 12.5405 12.4179 12.7715 12.3888C13.0072 12.3584 13.2382 12.4238 13.4213 12.5696L16.7113 15.1538L19.5895 11.4403C19.8858 11.0564 20.4342 10.9853 20.8168 11.2839ZM24.2643 2.33337C25.984 2.33337 27.3817 3.73104 27.3817 5.45071C27.3817 7.17037 25.984 8.56921 24.2643 8.56921C22.5458 8.56921 21.147 7.17037 21.147 5.45071C21.147 3.73104 22.5458 2.33337 24.2643 2.33337ZM24.2643 4.08337C23.5107 4.08337 22.897 4.69587 22.897 5.45071C22.897 6.20437 23.5107 6.81921 24.2643 6.81921C25.018 6.81921 25.6317 6.20437 25.6317 5.45071C25.6317 4.69587 25.018 4.08337 24.2643 4.08337Z" fill="#A9A9A9"/>
</svg>
