<svg width="821" height="56" viewBox="0 0 821 56" fill="none" xmlns="http://www.w3.org/2000/svg">
<rect width="820" height="56" transform="translate(0.5)" fill="white"/>
<g opacity="0.25">
<path d="M34.9 25.4C33.2 25.7 31.7 26.3 30.3 27.4L27.5 24.5V31.5H34.5L31.8 28.8C35.5 26.2 40.6 27 43.3 30.7C43.5 31 43.7 31.2 43.8 31.5L45.6 30.6C43.4 26.8 39.2 24.7 34.9 25.4Z" fill="#555555"/>
</g>
<g opacity="0.25">
<path d="M102.1 25.4C103.8 25.7 105.3 26.3 106.7 27.4L109.5 24.5V31.5H102.5L105.2 28.8C101.5 26.1 96.4 27 93.8 30.7C93.6 31 93.4 31.2 93.3 31.5L91.5 30.6C93.6 26.8 97.8 24.7 102.1 25.4Z" fill="#555555"/>
</g>
<path d="M167.75 27.8C168.24 27.5018 168.653 27.0934 168.957 26.6073C169.261 26.1212 169.447 25.5708 169.5 25C169.51 24.4839 169.417 23.971 169.228 23.4906C169.039 23.0103 168.757 22.5718 168.399 22.2004C168.041 21.8289 167.612 21.5317 167.139 21.3258C166.666 21.1198 166.157 21.0091 165.64 21H159.15V35H166.15C166.642 34.9948 167.127 34.8929 167.579 34.7001C168.03 34.5073 168.44 34.2274 168.783 33.8764C169.127 33.5253 169.398 33.1101 169.581 32.6543C169.764 32.1985 169.856 31.7112 169.85 31.22V31.1C169.851 30.4071 169.653 29.7285 169.281 29.144C168.909 28.5594 168.378 28.0931 167.75 27.8ZM161.15 23H165.35C165.777 22.9868 166.197 23.1043 166.554 23.3367C166.912 23.569 167.189 23.9052 167.35 24.3C167.513 24.8278 167.461 25.3986 167.204 25.8877C166.947 26.3767 166.507 26.7443 165.98 26.91C165.776 26.97 165.564 27.0003 165.35 27H161.15V23ZM165.75 33H161.15V29H165.75C166.177 28.9868 166.597 29.1043 166.954 29.3367C167.312 29.569 167.589 29.9052 167.75 30.3C167.913 30.8278 167.861 31.3986 167.604 31.8877C167.347 32.3767 166.907 32.7443 166.38 32.91C166.176 32.97 165.964 33.0003 165.75 33Z" fill="#555555"/>
<path d="M208.26 25H210.26L208.06 35H206.06L208.26 25ZM209.94 21C209.742 21 209.548 21.0586 209.384 21.1685C209.22 21.2784 209.091 21.4346 209.016 21.6173C208.94 21.8 208.92 22.0011 208.959 22.1951C208.997 22.3891 209.093 22.5673 209.232 22.7071C209.372 22.847 209.55 22.9422 209.744 22.9808C209.938 23.0194 210.14 22.9996 210.322 22.9239C210.505 22.8482 210.661 22.72 210.771 22.5556C210.881 22.3911 210.94 22.1978 210.94 22C210.94 21.7348 210.834 21.4804 210.647 21.2929C210.459 21.1054 210.205 21 209.94 21Z" fill="#555555"/>
<path d="M259.5 36V38H245.5V36H259.5ZM256.5 29.215C256.467 29.875 256.271 30.5165 255.93 31.0823C255.588 31.6481 255.112 32.1205 254.544 32.4572C253.975 32.794 253.332 32.9847 252.672 33.0122C252.011 33.0397 251.355 32.9033 250.76 32.615C250.075 32.3185 249.493 31.8241 249.091 31.1952C248.688 30.5663 248.482 29.8315 248.5 29.085V21.005H246.5V29.215C246.534 30.1564 246.789 31.0766 247.244 31.9012C247.7 32.7257 248.343 33.4314 249.122 33.9611C249.901 34.4908 250.794 34.8296 251.728 34.9502C252.663 35.0707 253.612 34.9696 254.5 34.655C255.681 34.2613 256.706 33.5012 257.425 32.485C258.145 31.4689 258.521 30.2498 258.5 29.005V21.005H256.5V29.215ZM256.5 21H258.5H256.5ZM248.5 21H246.5H248.5Z" fill="#555555"/>
<path d="M287.5 28.2029H305.5V29.7029H301.134C301.371 30.2002 301.491 30.7451 301.484 31.2958C301.498 31.8183 301.386 32.3365 301.157 32.8064C300.928 33.2764 300.589 33.6843 300.169 33.9955C299.158 34.7072 297.938 35.0607 296.703 35C295.8 35.0061 294.906 34.8224 294.079 34.461C293.324 34.1477 292.669 33.6329 292.187 32.9728C291.742 32.3426 291.508 31.5884 291.516 30.8174V30.704H291.804V30.7029H292.145V30.704H293.52V30.8173C293.504 31.1687 293.574 31.5187 293.723 31.8374C293.871 32.1562 294.095 32.4343 294.374 32.648C295.052 33.1303 295.872 33.3697 296.702 33.3273C297.436 33.3752 298.164 33.1835 298.779 32.7811C299.007 32.6126 299.19 32.3908 299.312 32.1351C299.435 31.8794 299.492 31.5977 299.48 31.3145C299.496 31.041 299.446 30.7676 299.333 30.5178C299.221 30.268 299.049 30.0493 298.833 29.8801C298.745 29.8161 298.653 29.7569 298.559 29.7029H287.5V28.2029ZM300.845 23.0598C300.423 22.4048 299.827 21.8806 299.124 21.5462C298.339 21.1726 297.479 20.9856 296.611 21C295.4 20.948 294.209 21.324 293.247 22.0621C292.834 22.381 292.501 22.7915 292.274 23.2612C292.048 23.7309 291.933 24.247 291.94 24.7685C291.937 25.2628 292.047 25.7513 292.262 26.1964H294.858C294.775 26.1427 294.673 26.0906 294.606 26.0358C294.402 25.8857 294.237 25.6897 294.124 25.4637C294.01 25.2378 293.952 24.9882 293.953 24.7354C293.938 24.4468 293.992 24.1588 294.112 23.8958C294.232 23.6328 294.414 23.4026 294.641 23.2246C295.217 22.8251 295.911 22.6305 296.611 22.6722C297.372 22.6238 298.123 22.8624 298.717 23.3409C298.965 23.5747 299.159 23.8597 299.287 24.1761C299.414 24.4926 299.47 24.8329 299.453 25.1734V25.2869H301.456V25.1734C301.459 24.4248 301.247 23.6911 300.845 23.0598Z" fill="#555555"/>
<path d="M343.7 29.494C343.7 29.494 340.1 33.394 340.1 35.794C340.093 36.2733 340.181 36.7493 340.358 37.1946C340.536 37.64 340.799 38.046 341.133 38.3896C341.808 39.0835 342.732 39.4807 343.7 39.494C344.668 39.5073 345.601 39.1354 346.295 38.4603C346.639 38.126 346.913 37.7273 347.103 37.287C347.292 36.8467 347.393 36.3733 347.4 35.894V35.794C347.4 33.394 343.7 29.494 343.7 29.494ZM342.23 28.137L342.899 27.413L340.6 21H338.6L333.6 35H335.6L337.03 31H339.973C340.651 29.9909 341.404 29.0339 342.226 28.137H342.23ZM339.6 23.8L341.46 29H337.744L339.6 23.8Z" fill="#555555"/>
<path d="M382.418 28.2408L390.165 22.8506L391.345 24.1465L385.251 31.354L382.418 28.2408ZM380.087 28.652L384.623 33.6353C384.717 33.7283 384.829 33.8003 384.953 33.8466C385.077 33.8929 385.209 33.9123 385.341 33.9038C385.473 33.8952 385.601 33.8587 385.718 33.7967C385.835 33.7348 385.937 33.6488 386.018 33.5444L393.469 24.7314C393.618 24.5683 393.702 24.3567 393.706 24.1362C393.71 23.9157 393.633 23.7013 393.491 23.533L390.978 20.7718C390.824 20.6141 390.617 20.5179 390.397 20.5011C390.178 20.4843 389.959 20.548 389.783 20.6805L380.309 27.2713C380.197 27.3422 380.102 27.4359 380.03 27.5463C379.957 27.6567 379.909 27.7813 379.888 27.9118C379.867 28.0423 379.874 28.1757 379.908 28.3033C379.943 28.4309 380.004 28.5498 380.087 28.652ZM375.294 34.5277L380.911 35.5L382.39 34.1538L379.362 30.8258L375.294 34.5277Z" fill="#555555"/>
<path d="M439.5 34H445.5V32H439.5V34ZM439.5 27V29H451.5V27H439.5ZM439.5 22V24H457.5V22H439.5Z" fill="#555555"/>
<path d="M464.5 30.5L468.5 25.5H460.5L464.5 30.5Z" fill="#555555"/>
<path d="M491 32H493V32.5H492V33.5H493V34H491V35H494V31H491V32ZM492 25H493V21H491V22H492V25ZM491 27H492.8L491 29.1V30H494V29H492.2L494 26.9V26H491V27ZM496 22V24H510V22H496ZM496 34H510V32H496V34ZM496 29H510V27H496V29Z" fill="#555555"/>
<path d="M516.5 30.5L520.5 25.5H512.5L516.5 30.5Z" fill="#555555"/>
<path d="M544.5 26.5C543.7 26.5 543 27.2 543 28C543 28.8 543.7 29.5 544.5 29.5C545.3 29.5 546 28.8 546 28C546 27.2 545.3 26.5 544.5 26.5ZM544.5 21.5C543.7 21.5 543 22.2 543 23C543 23.8 543.7 24.5 544.5 24.5C545.3 24.5 546 23.8 546 23C546 22.2 545.3 21.5 544.5 21.5ZM544.5 31.5C543.7 31.5 543 32.2 543 33C543 33.8 543.7 34.5 544.5 34.5C545.3 34.5 546 33.8 546 33C546 32.2 545.3 31.5 544.5 31.5ZM548 22V24H562V22H548ZM548 34H562V32H548V34ZM548 29H562V27H548V29Z" fill="#555555"/>
<path d="M568.5 30.5L572.5 25.5H564.5L568.5 30.5Z" fill="#555555"/>
<path d="M595.5 25V31L598.5 28L595.5 25ZM595.5 35H613.5V33H595.5V35ZM595.5 23H613.5V21H595.5V23ZM601.5 27H613.5V25H601.5V27ZM601.5 31H613.5V29H601.5V31Z" fill="#555555"/>
<g opacity="0.25">
<path d="M639.5 28L642.5 31V25L639.5 28ZM639.5 35H657.5V33H639.5V35ZM639.5 23H657.5V21H639.5V23ZM645.5 27H657.5V25H645.5V27ZM645.5 31H657.5V29H645.5V31Z" fill="#555555"/>
</g>
<path d="M714.7 27L718.5 32H706.5L709.5 28.1L711.6 30.8L714.5 27H714.7ZM709 27C709.8 27 710.5 26.3 710.5 25.5C710.5 24.7 709.8 24 709 24C708.2 24 707.5 24.7 707.5 25.5C707.5 26.3 708.2 27 709 27ZM722.5 22V34C722.5 35.1 721.6 36 720.5 36H704.5C703.4 36 702.5 35.1 702.5 34V22C702.5 20.9 703.4 20 704.5 20H720.5C721.6 20 722.5 20.9 722.5 22ZM720.5 24.8V22H704.5V34H720.5V24.8Z" fill="#555555"/>
<path d="M755.5 33H751.5C750.174 33 748.902 32.4732 747.964 31.5355C747.027 30.5979 746.5 29.3261 746.5 28C746.5 26.6739 747.027 25.4021 747.964 24.4645C748.902 23.5268 750.174 23 751.5 23H755.5V25H751.5C750.704 25 749.941 25.3161 749.379 25.8787C748.816 26.4413 748.5 27.2044 748.5 28C748.5 28.7956 748.816 29.5587 749.379 30.1213C749.941 30.6839 750.704 31 751.5 31H755.5V33ZM761.5 23H757.5V25H761.5C762.296 25 763.059 25.3161 763.621 25.8787C764.184 26.4413 764.5 27.2044 764.5 28C764.5 28.7956 764.184 29.5587 763.621 30.1213C763.059 30.6839 762.296 31 761.5 31H757.5V33H761.5C762.826 33 764.098 32.4732 765.036 31.5355C765.973 30.5979 766.5 29.3261 766.5 28C766.5 26.6739 765.973 25.4021 765.036 24.4645C764.098 23.5268 762.826 23 761.5 23ZM760.5 27H752.5V29H760.5V27Z" fill="#555555"/>
<path d="M795.5 19C794.4 19 793.5 19.9 793.5 21V35C793.5 36.1 794.4 37 795.5 37H805.5C806.6 37 807.5 36.1 807.5 35V23.6L802.9 19H795.5ZM805.5 35H795.5V21H801.5V25H805.5V35Z" fill="#555555"/>
</svg>
